<svg version="1.1" id="Layer_1" xmlns="http://www.w3.org/2000/svg" xmlns:xlink="http://www.w3.org/1999/xlink" x="0px" y="0px" viewBox="0 0 500 500" style="width: 151px;" xml:space="preserve" data-imageid="fishing-91" imageName="Pesca" class="illustrations_image">
<style type="text/css">
	.st0_fishing-91{fill:#D1D3D4;}
	.st1_fishing-91{fill:#231F20;}
	.st2_fishing-91{fill:#FFFFFF;}
	.st3_fishing-91{fill:#68E1FD;}
</style>
<g id="Background_fishing-91">
	<path class="st0_fishing-91" d="M379.6,341.6H288c-0.4,0-0.7-0.2-0.7-0.6c0-0.4,0.2-0.7,0.6-0.7c0.1,0,0.1,0,0.2,0h91.5c0.4,0,0.6,0.4,0.6,0.7&#10;&#9;&#9;C380.1,341.4,379.9,341.6,379.6,341.6L379.6,341.6z"/>
	<path class="st0_fishing-91" d="M280.3,341.6H167.2c-0.4,0-0.6-0.4-0.6-0.7c0-0.3,0.3-0.5,0.6-0.6h113.1c0.4,0,0.6,0.4,0.6,0.7&#10;&#9;&#9;C280.8,341.4,280.6,341.6,280.3,341.6z"/>
	<path class="st0_fishing-91" d="M443.7,341.6h-56.3c-0.4,0-0.6-0.4-0.6-0.7c0-0.3,0.3-0.5,0.6-0.6h56.3c0.4,0,0.6,0.4,0.6,0.7&#10;&#9;&#9;C444.2,341.4,444,341.6,443.7,341.6z"/>
	<path class="st0_fishing-91" d="M159.4,341.6H54.3c-0.4,0-0.6-0.4-0.6-0.7c0-0.3,0.3-0.5,0.6-0.6h105.1c0.4,0,0.6,0.4,0.6,0.7&#10;&#9;&#9;C160,341.4,159.7,341.6,159.4,341.6z"/>
	<path class="st0_fishing-91" d="M133,340.9c-0.4,0-0.7-0.3-0.6-0.7c0-0.3,0.2-0.5,0.4-0.6c9-3.2,15.1-11.6,17-14.5L76.2,328l2.2,12.1&#10;&#9;&#9;c0.1,0.4-0.2,0.7-0.5,0.8c-0.4,0.1-0.7-0.2-0.8-0.5l-2.4-12.9c0-0.2,0-0.4,0.1-0.5c0.1-0.2,0.3-0.2,0.5-0.2l75.7-3&#10;&#9;&#9;c0.2,0,0.5,0.1,0.6,0.3c0.1,0.2,0.1,0.5,0,0.7c-0.3,0.5-7,12-18.4,16.1C133.1,340.8,133.1,340.8,133,340.9z"/>
	<path class="st0_fishing-91" d="M79.6,327.3h-8.4c-2.2,0-4-1.8-4-4v-3.5c0-2.2,1.8-4,4-4h8.4c2.2,0,4,1.8,4,4v3.5&#10;&#9;&#9;C83.6,325.5,81.8,327.3,79.6,327.3z M71.1,317.2c-1.5,0-2.6,1.2-2.6,2.6v3.5c0,1.5,1.2,2.6,2.6,2.6h8.4c1.5,0,2.6-1.2,2.6-2.6v-3.5&#10;&#9;&#9;c0-1.5-1.2-2.6-2.6-2.6c0,0,0,0,0,0H71.1z"/>
	<path class="st0_fishing-91" d="M71.2,340.9c-0.4,0-0.7-0.3-0.7-0.7v-13.6c0-0.4,0.3-0.7,0.7-0.7s0.7,0.3,0.7,0.7c0,0,0,0,0,0v13.6&#10;&#9;&#9;C71.8,340.6,71.5,340.9,71.2,340.9C71.2,340.9,71.2,340.9,71.2,340.9z"/>
	<path class="st0_fishing-91" d="M145.9,325c-0.4,0-0.7-0.3-0.7-0.7v-3.7c0-0.4,0.4-0.6,0.7-0.6c0.3,0,0.5,0.3,0.6,0.6v3.7&#10;&#9;&#9;C146.6,324.7,146.3,325,145.9,325z"/>
	<path class="st0_fishing-91" d="M387.4,345.9c-0.4,0-0.7-0.3-0.7-0.7v-22h-6.5v22c0,0.4-0.3,0.7-0.7,0.7s-0.7-0.3-0.7-0.7v-22.6&#10;&#9;&#9;c0-0.4,0.3-0.7,0.7-0.7l0,0h7.8c0.4,0,0.7,0.3,0.7,0.7v22.6C388,345.6,387.7,345.9,387.4,345.9z"/>
	<path class="st0_fishing-91" d="M288,345.9c-0.4,0-0.7-0.3-0.7-0.7v0v-22h-6.5v22c0,0.4-0.3,0.7-0.7,0.7s-0.7-0.3-0.7-0.7v-22.6&#10;&#9;&#9;c0-0.4,0.3-0.7,0.7-0.7l0,0h7.8c0.4,0,0.7,0.3,0.7,0.7v22.6C288.7,345.6,288.4,345.9,288,345.9z"/>
	<path class="st0_fishing-91" d="M167.2,345.9c-0.4,0-0.7-0.3-0.7-0.7c0,0,0,0,0,0v-22h-6.5v22c0,0.4-0.3,0.7-0.7,0.7s-0.7-0.3-0.7-0.7v-22.6&#10;&#9;&#9;c0-0.4,0.3-0.7,0.7-0.7h7.8c0.4,0,0.7,0.3,0.7,0.7v22.6C167.9,345.6,167.6,345.9,167.2,345.9z"/>
	<path class="st0_fishing-91" d="M149.1,349c-1.1,0-2.1-0.3-3.1-0.8c-1.6-1-2.7-2.7-3.1-4.5c-0.4-1.7-0.5-3.5-0.4-5.2l0.2-13.6&#10;&#9;&#9;c0-0.4,0.3-0.7,0.7-0.7l0,0l0,0c0.4,0,0.7,0.3,0.6,0.7c0,0,0,0,0,0l-0.2,13.6c-0.1,1.6,0,3.3,0.4,4.9c0.3,1.5,1.2,2.8,2.5,3.7&#10;&#9;&#9;c1.9,1,4.2,0.8,5.9-0.5c1.8-1.4,3.1-3.2,3.9-5.3c0.4-0.9,0.8-1.9,1.1-2.9c0.5-1.2,0.9-2.5,1.5-3.7c0.1-0.1,0.2-0.3,0.3-0.3&#10;&#9;&#9;c1.5-0.7,3-1.2,4.5-1.7l-1.7-0.2c-1-0.1-2-0.3-3-0.4c-0.3,0-0.5-0.2-0.6-0.4c-0.2-0.6,0.1-1.2,0.9-1.5c2.2-0.9,4.4-1.8,6.7-2.6&#10;&#9;&#9;c0.3-0.1,0.6-0.1,0.8,0c0.3,0.1,0.5,0.4,0.5,0.8c0,0.3-0.2,0.6-0.5,0.7c-0.2,0.1-0.4,0-0.6-0.1l-5.2,2.1l1.2,0.2&#10;&#9;&#9;c1.6,0.2,3.2,0.4,4.8,0.5c0.4,0,0.7,0.3,0.7,0.7c0,0.3-0.2,0.5-0.5,0.6c-2.1,0.7-4.7,1.5-7.2,2.6c-0.5,1.1-0.9,2.2-1.3,3.4&#10;&#9;&#9;s-0.7,2-1.2,3c-0.9,2.3-2.4,4.4-4.4,5.9C152.1,348.6,150.6,349,149.1,349z"/>
</g>
<g id="Fisherman_fishing-91">
	<path class="st1_fishing-91" d="M211.7,147.8c25-2.9,42.1,0.1,58.6,3.6s40.8,48.5,48.2,57.1c9.8,11.3,22.6,19.7,36.9,24.1l-1.7,24.6&#10;&#9;&#9;c0,0-33-0.5-53-20.3s-31.6-43.8-31.6-43.8l-64.9-5.6c0,0-26.9,41.4-32.4,38.8s-43.6-42.5-43.6-42.5l7.5-17.3&#10;&#9;&#9;c0,0,34.3,25.4,36.6,21.8S186.7,150.7,211.7,147.8z"/>
	<path class="st1_fishing-91" d="M353.7,258L353.7,258c-0.3,0-33.5-0.8-53.5-20.4c-18.6-18.3-30.1-40.7-31.6-43.7l-64.1-5.5&#10;&#9;&#9;c-5,7.7-27.3,41.4-33.1,38.7s-42.3-41-43.8-42.7c-0.2-0.2-0.2-0.5-0.1-0.7l7.5-17.4c0.1-0.2,0.2-0.3,0.4-0.4c0.2-0.1,0.4,0,0.6,0.1&#10;&#9;&#9;c15.7,11.6,33.8,23.4,35.6,22c0.3-0.4,0.8-1.5,1.4-2.8c4.6-9.7,16.6-35.5,38.7-38l0,0c25.2-2.9,42.2,0.1,58.8,3.6&#10;&#9;&#9;c12.4,2.6,28.8,27.8,39.6,44.4c3.9,6,7,10.7,8.9,13c9.7,11.2,22.4,19.5,36.5,23.9c0.3,0.1,0.5,0.4,0.5,0.7l-1.7,24.6&#10;&#9;&#9;C354.4,257.8,354.1,258,353.7,258z M204.2,187L204.2,187l64.9,5.6c0.2,0,0.4,0.2,0.5,0.4c0.1,0.2,11.8,24.2,31.5,43.6&#10;&#9;&#9;c18.1,17.8,47.3,19.8,51.9,20l1.6-23.4c-14.2-4.6-26.9-13-36.7-24.2c-2-2.3-5.1-7.1-9-13.1c-10.7-16.4-27-41.3-38.8-43.8&#10;&#9;&#9;c-16.5-3.5-33.4-6.5-58.4-3.6l0,0c-21.4,2.4-33.2,27.8-37.6,37.3c-0.7,1.4-1.1,2.4-1.4,2.9c-0.2,0.3-0.6,0.6-1,0.6&#10;&#9;&#9;c-4.8,0.9-30.6-17.8-35.9-21.7l-7,16.2c13.2,13.9,38.8,40.1,43.1,42.1c3.5,1.6,20.6-21.6,31.6-38.6&#10;&#9;&#9;C203.7,187.1,203.9,187,204.2,187z M211.7,147.9L211.7,147.9z"/>
	<path class="st2_fishing-91" d="M258.9,125.4c-0.3-0.6,2.7-7.6,1.7-18.6S239.4,92,232.1,92.9s-14.6,8.4-16,15.7s1.7,20.3,1.7,20.3L258.9,125.4&#10;&#9;&#9;z"/>
	<path class="st1_fishing-91" d="M217.8,129.6c-0.3,0-0.6-0.2-0.7-0.5c-0.1-0.5-3.2-13.3-1.7-20.6c1.6-7.8,9.2-15.2,16.6-16.2&#10;&#9;&#9;c5-0.7,17.6,1,24.6,6.6c2.8,2.3,4.4,4.9,4.7,7.9c0.5,5.7,0.1,11.5-1.4,17.1c-0.1,0.5-0.2,0.9-0.3,1.4c0,0.2,0,0.4-0.1,0.5&#10;&#9;&#9;c-0.1,0.2-0.3,0.3-0.5,0.3L217.8,129.6L217.8,129.6z M234.5,93.5c-0.8,0-1.5,0-2.3,0.1c-6.8,0.9-14,7.9-15.5,15.1&#10;&#9;&#9;c-1.3,6.2,1,16.9,1.6,19.5l40-3.4c0.1-0.3,0.2-0.7,0.3-1.3c1.4-5.4,1.9-11,1.4-16.6c-0.4-2.8-1.9-5.4-4.2-7&#10;&#9;&#9;C250,95.3,240.2,93.4,234.5,93.5L234.5,93.5z"/>
	<path class="st2_fishing-91" d="M252.8,124.7c1.1-7,12.7-8.7,12.2-0.5c-0.1,2.9-1.2,5.6-3.1,7.7c-2,2.1-5.1,2.8-7.8,1.8"/>
	<path class="st1_fishing-91" d="M256.5,135c-0.9,0-1.9-0.2-2.7-0.6c-0.3-0.1-0.5-0.6-0.4-0.9c0,0,0,0,0,0c0.2-0.3,0.6-0.5,0.9-0.3&#10;&#9;&#9;c2.5,0.9,5.2,0.2,7-1.7c1.8-2,2.8-4.6,2.9-7.3c0.2-2.7-1.1-4.5-3.5-4.7c-3-0.3-6.7,1.8-7.3,5.4c-0.1,0.4-0.4,0.6-0.8,0.6&#10;&#9;&#9;c-0.4-0.1-0.6-0.4-0.6-0.8c0,0,0,0,0,0c0.8-4.1,4.6-6.9,8.8-6.5c2.5,0.3,5,2.1,4.7,6.2c-0.1,3-1.3,5.9-3.3,8.2&#10;&#9;&#9;C260.8,134.1,258.7,135,256.5,135z"/>
	<path class="st2_fishing-91" d="M223.9,124.7c-1.1-7-12.8-8.7-12.2-0.5c0.1,2.9,1.2,5.6,3.1,7.7c2,2.1,5.1,2.8,7.8,1.8"/>
	<path class="st1_fishing-91" d="M220.2,135c-2.2,0-4.3-0.9-5.9-2.5c-2-2.3-3.2-5.1-3.3-8.2c-0.3-4.1,2.2-5.9,4.7-6.2c4.2-0.4,8,2.4,8.8,6.5&#10;&#9;&#9;c0.1,0.4-0.2,0.7-0.6,0.8c0,0,0,0,0,0c-0.4,0.1-0.7-0.2-0.8-0.6c-0.6-3.6-4.3-5.7-7.3-5.4c-2.4,0.3-3.7,2-3.5,4.7&#10;&#9;&#9;c0.1,2.7,1.1,5.3,2.9,7.3c1.8,1.9,4.5,2.6,7,1.7c0.3-0.2,0.7,0,0.9,0.3c0.2,0.3,0,0.7-0.3,0.9C222,134.8,221.1,135,220.2,135z"/>
	<path class="st2_fishing-91" d="M224.9,159.7c0,0,3.1,6.9,12.3,6.9c5.2,0.1,10.1-2.5,12.9-6.9l-0.4-4.9l-0.9-11.4l-0.8-10.6h-21l-0.7,8.7&#10;&#9;&#9;l-0.2,2.8L224.9,159.7z"/>
	<path class="st1_fishing-91" d="M237.2,167.2c-9.5,0-12.8-6.9-12.9-7.2c0-0.1-0.1-0.2-0.1-0.3l2.1-26.9c0-0.4,0.3-0.6,0.7-0.6h21&#10;&#9;&#9;c0.4,0,0.7,0.3,0.7,0.6l2.1,26.9c0,0.1,0,0.3-0.1,0.4C247.8,164.7,242.7,167.4,237.2,167.2z M225.6,159.6c0.5,1,3.7,6.3,11.6,6.3&#10;&#9;&#9;c4.9,0.2,9.5-2.2,12.2-6.3l-2.1-26.1h-19.7L225.6,159.6z"/>
	<path class="st1_fishing-91" d="M224.7,140.7c0.2,1.3,0.7,2.5,1.4,3.6c1.8,2.5,4.1,4.6,6.9,6c4.5,2.5,11.2,5.3,16.7,4.5l-0.9-11.4&#10;&#9;&#9;c-4,0.5-8.1,0.5-12.1,0.1c-3.5-0.3-7.2-0.6-10.4-2C225.8,141.3,225.2,141,224.7,140.7z"/>
	<path class="st1_fishing-91" d="M247.6,155.6c-5.6,0-11.6-2.9-15-4.7c-2.9-1.5-5.3-3.6-7.1-6.3c-0.7-1.2-1.3-2.5-1.5-3.9&#10;&#9;&#9;c0-0.3,0.1-0.5,0.3-0.7c0.2-0.1,0.5-0.1,0.7,0c0.5,0.3,1,0.5,1.6,0.8c3.2,1.4,6.9,1.7,10.2,2c4,0.4,8,0.4,11.9-0.1&#10;&#9;&#9;c0.2,0,0.4,0,0.5,0.1c0.1,0.1,0.2,0.3,0.2,0.5l0.9,11.4c0,0.3-0.2,0.7-0.6,0.7C249.1,155.6,248.4,155.7,247.6,155.6z M225.7,142&#10;&#9;&#9;c0.3,0.7,0.6,1.4,1,2c1.7,2.5,4,4.5,6.6,5.8c3.5,1.9,10.1,5,15.7,4.5l-0.8-10.1c-3.8,0.4-7.7,0.4-11.5,0c-3.4-0.3-7.2-0.6-10.6-2.1&#10;&#9;&#9;L225.7,142z"/>
	<path class="st2_fishing-91" d="M236.9,146.1h1.9c8.8,0,16-7.2,16-16v-25.5h-34v25.4c0,8.8,7.1,16,16,16C236.8,146.1,236.8,146.1,236.9,146.1z&#10;&#9;&#9;"/>
	<path class="st1_fishing-91" d="M254.8,104.7v25.4c0,8.8-7.2,16-16,16h-1.9c-8.8,0-16-7.1-16-15.9c0,0,0,0,0-0.1v-25.4H254.8 M254.8,103.3h-34&#10;&#9;&#9;c-0.8,0-1.4,0.6-1.4,1.4v25.4c0,9.6,7.8,17.4,17.4,17.4h1.9c9.6,0,17.4-7.8,17.4-17.4v-25.4C256.2,103.9,255.6,103.3,254.8,103.3&#10;&#9;&#9;L254.8,103.3z"/>
	<path class="st1_fishing-91" d="M238.1,130.5c-0.8,0-1.6,0-2.3-0.1c-0.4,0-0.8-0.3-0.9-0.6c-1.2-2,1.7-9.9,2.6-12.3c0.1-0.4,0.5-0.5,0.9-0.4&#10;&#9;&#9;c0.4,0.1,0.5,0.5,0.4,0.9c0,0,0,0,0,0c-2,5.2-3.2,10.4-2.7,11.1c1.5,0.1,3,0.1,4.4,0c0.4,0,0.7,0.2,0.8,0.6c0,0.4-0.2,0.7-0.6,0.8&#10;&#9;&#9;C239.8,130.5,238.9,130.5,238.1,130.5z"/>
	<path class="st2_fishing-91" d="M260.6,106.8c0,0-6.6,9.8-10.5,7.8s-6-7.3-12.9-7.5c-6-0.1-9.4,8.6-14.4,7.3c-3-0.9-5.5-3.1-6.7-6&#10;&#9;&#9;c0,0,7.6-12.7,24.6-11.4S260.6,106.8,260.6,106.8z"/>
	<path class="st1_fishing-91" d="M251.2,115.6c-0.5,0-1-0.1-1.4-0.3c-1.4-0.8-2.7-1.8-3.8-3c-2.2-2.1-4.5-4.3-8.8-4.4c-2.7-0.1-4.9,1.9-7,3.9&#10;&#9;&#9;c-2.3,2-4.6,4.2-7.5,3.5c-3.3-0.9-5.9-3.3-7.2-6.4c-0.1-0.2,0-0.4,0.1-0.6c5.7-8.2,15.3-12.7,25.2-11.8&#10;&#9;&#9;c17.2,1.3,20.4,9.8,20.5,10.2c0.1,0.2,0,0.4-0.1,0.6C260.5,108.2,255.4,115.6,251.2,115.6z M237.1,106.5h0.1&#10;&#9;&#9;c4.8,0.1,7.4,2.6,9.7,4.8c1,1.1,2.2,2,3.5,2.8c2.6,1.3,7.6-4.7,9.4-7.3c-0.7-1.5-4.8-7.9-19.2-8.9c-9.3-0.9-18.3,3.3-23.7,10.8&#10;&#9;&#9;c1.2,2.6,3.4,4.5,6.1,5.2c2.2,0.6,4.1-1.2,6.2-3.2S233.9,106.5,237.1,106.5z"/>
	<path class="st2_fishing-91" d="M216.1,108.6c0-5,0.5-10,1.7-14.9c1.8-6.7,13.3-11.2,20.5-9.9s19.2,6.5,20.6,9.7s1.7,13.4,1.7,13.4&#10;&#9;&#9;S233,92.3,216.1,108.6z"/>
	<path class="st1_fishing-91" d="M216.1,109.2c-0.1,0-0.2,0-0.3,0c-0.3-0.1-0.4-0.3-0.4-0.6c0-5.1,0.5-10.2,1.7-15.1c1.9-7,13.6-11.8,21.3-10.4&#10;&#9;&#9;c6.8,1.2,19.5,6.4,21.1,10.1c1.5,3.3,1.7,13.3,1.7,13.7c0,0.4-0.3,0.7-0.7,0.7c-0.1,0-0.2,0-0.3-0.1c-0.3-0.1-27.4-14.1-43.7,1.6&#10;&#9;&#9;C216.5,109.2,216.3,109.3,216.1,109.2z M235.7,84.2c-6.9,0-15.8,4.1-17.2,9.7c-1,4.3-1.6,8.7-1.6,13.2c15.2-13,38-3.7,43.1-1.3&#10;&#9;&#9;c-0.1-2.7-0.5-9.6-1.6-12c-1.2-2.8-12.5-8-20.1-9.3C237.4,84.3,236.5,84.2,235.7,84.2z"/>
	<path class="st0_fishing-91" d="M221.9,135.6c0.1,0,7.3-0.6,10.2-1.9s2.9-4.6,8.6-1s13.4,1,13.4,1l0.2,0.3c-1.3,5.1-5,9.2-9.9,11&#10;&#9;&#9;c-2.5,0.5-5,0.8-7.5,1C230.2,146.1,224.2,141.9,221.9,135.6z"/>
	<path class="st1_fishing-91" d="M239,140.9c-2.4-0.1-4.7-0.8-6.7-1.9c-0.3-0.2-0.5-0.6-0.3-0.9c0,0,0,0,0-0.1c0.2-0.3,0.6-0.5,0.9-0.3&#10;&#9;&#9;c0,0,0,0,0,0c3.2,1.7,6,2.2,8.2,1.5c1.3-0.4,2.4-1.3,3.1-2.4c0.2-0.3,0.6-0.5,0.9-0.3c0.3,0.2,0.5,0.6,0.3,0.9c0,0,0,0,0,0&#10;&#9;&#9;c-0.8,1.5-2.2,2.6-3.9,3.1C240.7,140.7,239.9,140.9,239,140.9z"/>
	<path class="st3_fishing-91 targetColor" d="M199.2,179.4H280c0,0-2.8,56.7-2.8,62.7c0,2,4.2,110.9,4.2,110.9h-26.9l-22.1-66.9c0,0-19.4,63.4-18.9,63.4&#10;&#9;&#9;s-28.9-4.5-28.9-4.5s10.1-109,10.6-111.4C196.7,226.2,199.2,179.4,199.2,179.4z"/>
	<path class="st3_fishing-91 targetColor" d="M270.3,196.3c-1-2-0.9-45.7-0.9-46.6s-10.1-1.4-10.1-1.4l-4.5,51L270.3,196.3z"/>
	<path class="st3_fishing-91 targetColor" d="M223.9,195.3c-0.8-3-3.2-50.2-3.2-50.2l-10.4,1l-3.6,49.2L223.9,195.3z"/>
	<path class="st1_fishing-91" d="M253.1,349.5c0,0,26.9-14.5,31-14.4c1.5,0,3.7,61.7,3.7,61.7s23.2,17.2,18.7,17.2s-43.6-6.3-43.6-6.3&#10;&#9;&#9;L253.1,349.5z"/>
	<path class="st1_fishing-91" d="M306.5,414.6c-4.5,0-42.1-6-43.7-6.3c-0.3,0-0.5-0.3-0.5-0.5l-9.9-58.2c0-0.3,0.1-0.6,0.3-0.7&#10;&#9;&#9;c2.8-1.5,27-14.5,31.3-14.5h0c0.9,0,1.5,0,3.1,31.5c0.7,14,1.2,28.3,1.3,30.5c9.2,6.8,19.9,15.3,19.2,17.5&#10;&#9;&#9;C307.5,414.4,307,414.7,306.5,414.6z M263.5,407.1c4.4,0.7,37.9,6,42.8,6.2c-1.1-2.1-10.2-9.5-18.9-16c-0.2-0.1-0.3-0.3-0.3-0.5&#10;&#9;&#9;c-0.8-22.8-2.4-57.2-3.4-61.1c-4.1,0.5-22.4,10.1-29.9,14.1L263.5,407.1z"/>
	<path class="st1_fishing-91" d="M214.6,349.5c0,0-26.9-14.5-31-14.4c-1.5,0-9,61.7-9,61.7s-36.4,17.2-32,17.2s56.8-6.3,56.8-6.3L214.6,349.5z"/>
	<path class="st1_fishing-91" d="M142.6,414.6c-0.8,0-1-0.5-1-0.6c-0.1-0.6-0.5-2.1,32.4-17.6c0.3-2.4,2-16.5,3.9-30.5&#10;&#9;&#9;c4.2-31.4,4.9-31.4,5.7-31.5h0.1c4.3,0,28.5,13,31.3,14.5c0.3,0.1,0.4,0.5,0.3,0.8l-15.1,58.2c-0.1,0.3-0.3,0.5-0.6,0.5&#10;&#9;&#9;C197.4,408.6,147.1,414.6,142.6,414.6z M183.9,335.8c-1.4,3.6-5.9,38.2-8.7,61.1c0,0.2-0.2,0.4-0.4,0.5c-10.6,5-27,13-31.1,15.8&#10;&#9;&#9;c8.6-0.6,50.3-5.6,55.2-6.2l14.9-57.2C206.3,345.8,187.9,336.2,183.9,335.8z"/>
	<path class="st1_fishing-91" d="M236.7,237.7c-3.8,0-7.5-0.9-10.9-2.5c-11.9-5.9-17.9-20.7-16.3-40.6c0-0.4,0.3-0.6,0.7-0.6l0,0l53,0.8&#10;&#9;&#9;c0.3,0,0.6,0.2,0.6,0.5c0.1,0.2,5.3,22.1-10.1,35.8C249,235.4,243,237.7,236.7,237.7z M210.7,195.4c-1.4,19,4.3,33,15.6,38.6&#10;&#9;&#9;c8.8,4.2,19.2,2.7,26.5-3.8c13.4-12.1,10.4-30.7,9.8-34L210.7,195.4z"/>
	<path class="st1_fishing-91" d="M258.1,258.4c-25.4,0-61.1-6.1-61.5-6.2c-0.4-0.1-0.6-0.4-0.6-0.8c0.1-0.4,0.4-0.6,0.8-0.6c0,0,0,0,0,0&#10;&#9;&#9;c0.6,0.1,54.8,9.4,76.8,5c0.4-0.1,0.7,0.2,0.8,0.5c0.1,0.4-0.2,0.7-0.5,0.8c0,0,0,0,0,0C268.7,258.1,263.4,258.5,258.1,258.4z"/>
	<path class="st1_fishing-91" d="M193.2,272.1c-0.4,0-0.7-0.3-0.7-0.7c0-0.3,0.2-0.6,0.5-0.7c13.2-4.2,13-11.2,13-11.2c0-0.4,0.3-0.7,0.7-0.7&#10;&#9;&#9;c0.3,0,0.6,0.3,0.7,0.6c0,0.3,0.4,8-13.9,12.6L193.2,272.1z"/>
	<path class="st1_fishing-91" d="M275,278.2h-0.1c-7.5-1.7-13.4-7.6-15.1-15.1c0-0.4,0.2-0.7,0.6-0.8c0.3,0,0.6,0.2,0.7,0.5&#10;&#9;&#9;c1.7,6.9,7.1,12.4,14,14c0.4,0.1,0.6,0.4,0.6,0.8C275.6,278,275.3,278.3,275,278.2L275,278.2z"/>
	<path class="st1_fishing-91" d="M232.5,286.8c-0.3,0-0.6-0.2-0.6-0.5c0-0.1-4-13.9-3.4-26.8c0-0.4,0.3-0.7,0.6-0.7c0.4,0,0.7,0.3,0.7,0.6&#10;&#9;&#9;c0,0.1,0,0.1,0,0.2c-0.6,12.7,3.3,26.2,3.3,26.4c0.1,0.4-0.1,0.7-0.5,0.9C232.6,286.8,232.6,286.8,232.5,286.8z"/>
	<path class="st2_fishing-91" d="M161.9,244.3c0,0.1,0.1,0.2,0.1,0.3c2.5-0.3,5.2-5.4,6.4-7.5c1.8-3.3,3.1-6.8,3.8-10.5&#10;&#9;&#9;c1.5-7.4,0.4-15-2.9-21.7c-0.5-1.3-1.5-2.3-2.7-2.9c-1.4-0.3-2.9,0.1-4,1c-3.9,2.5-7,6.3-6.2,10.9c0.6,3.3,1.3,6.6,1.9,9.9&#10;&#9;&#9;C159.5,230.5,160.1,237.7,161.9,244.3z"/>
	<path class="st1_fishing-91" d="M161.9,245.3c-0.3,0-0.6-0.2-0.7-0.5l-0.1-0.3l0,0c-1.1-4.3-1.9-8.6-2.4-13c-0.4-2.5-0.8-5.1-1.2-7.6&#10;&#9;&#9;c-0.3-1.4-0.6-2.9-0.8-4.3c-0.4-1.9-0.7-3.7-1.1-5.6c-0.8-4.2,1.5-8.4,6.4-11.6c1.8-1.1,3.2-1.5,4.6-1.1c1.4,0.6,2.6,1.8,3.1,3.2&#10;&#9;&#9;c3.4,6.9,4.4,14.7,2.9,22.2c-0.7,3.7-2,7.3-3.8,10.7l-0.2,0.4C167.3,240.2,164.7,244.9,161.9,245.3L161.9,245.3z M165.6,202.5&#10;&#9;&#9;c-1,0.1-1.9,0.4-2.7,1c-2.6,1.7-6.8,5.3-5.9,10.2c0.4,1.8,0.7,3.7,1.1,5.5c0.3,1.4,0.6,2.9,0.8,4.3c0.5,2.5,0.9,5.1,1.2,7.7&#10;&#9;&#9;c0.5,4.2,1.3,8.3,2.3,12.4c1.9-0.9,4.1-4.9,5.1-6.7l0.2-0.4c1.8-3.2,3-6.7,3.7-10.3c1.4-7.2,0.4-14.7-2.8-21.3&#10;&#9;&#9;c-0.4-1.1-1.3-2-2.3-2.6C166,202.6,165.8,202.5,165.6,202.5z"/>
	<path class="st2_fishing-91" d="M101.5,210.7c-1,4.7-1.3,9.5-1.1,14.3c0.4,4.6,3.5,17.8,10,16.7c1.2-0.2,2.4-0.8,3.2-1.8&#10;&#9;&#9;c0.5-0.6,0.8-1.4,1-2.1c3.6-11.3,6.1-24.5-4.3-33.1c-2-1.6-5.2-2.7-6.9-0.8c-0.6,0.9-1,1.9-1.1,2.9&#10;&#9;&#9;C102,208.1,101.7,209.4,101.5,210.7z"/>
	<path class="st1_fishing-91" d="M109.7,242.4c-1.2,0-2.5-0.5-3.4-1.3c-4.2-3.3-6.3-12.4-6.6-16.1c-0.2-4.9,0.1-9.7,1.1-14.5&#10;&#9;&#9;c0.2-1.3,0.5-2.6,0.7-3.9c0.1-1.2,0.6-2.3,1.3-3.2c1.9-2.2,5.4-1.3,7.9,0.8c10.6,8.7,8.2,22,4.5,33.8c-0.2,0.8-0.6,1.6-1.1,2.3&#10;&#9;&#9;c-0.9,1.1-2.2,1.8-3.6,2C110.3,242.4,110,242.4,109.7,242.4z M105.8,203.6c-0.7,0-1.4,0.3-1.9,0.8c-0.5,0.8-0.9,1.6-0.9,2.6&#10;&#9;&#9;c-0.2,1.3-0.5,2.6-0.7,3.9l0,0c-1,4.7-1.3,9.4-1.1,14.2c0.3,3.9,2.4,12.3,6,15.1c0.9,0.8,2.1,1.1,3.2,0.9c1.1-0.1,2-0.7,2.7-1.5&#10;&#9;&#9;c0.4-0.6,0.7-1.2,0.9-1.9c3.6-11.4,5.9-24.1-4.1-32.3C108.7,204.3,107.3,203.7,105.8,203.6z M101.5,210.7L101.5,210.7z"/>
	<path class="st2_fishing-91" d="M108.7,242.6c-0.1,6.6,1.1,13.2,3.4,19.4c1.2,3.2,12,24.2,16.3,19.7c0.5-0.6,0.8-1.4,0.9-2.2&#10;&#9;&#9;c0.9-3.7,2.3-7.3,4.1-10.7c0.2-0.3,0.4-0.6,0.7-0.7s0.8,0.3,1,0.7c0.6,1.2,1.1,2.5,1.4,3.8c1,3.4,2.2,6.8,3.5,10.1&#10;&#9;&#9;c0.2,0.6,0.5,1.3,1.1,1.5c2.9,1,8.7-5.8,10.3-7.8c3.5-4.3,6.3-9.1,8.3-14.4c2.3-6.2,3.5-12.8,3.4-19.4c0-33.7-27.2-75.5-27.2-75.5&#10;&#9;&#9;S108.7,208.9,108.7,242.6z"/>
	<path class="st1_fishing-91" d="M141.7,284.9c-0.3,0-0.6,0-0.8-0.1c-0.8-0.4-1.3-1.1-1.5-1.9c-1.4-3.3-2.5-6.7-3.5-10.1l-0.1-0.4&#10;&#9;&#9;c-0.2-1.1-0.6-2.2-1.2-3.2c-0.1-0.2-0.2-0.3-0.3-0.4c0,0,0,0.1-0.2,0.4c-1.8,3.3-3.1,6.9-4.1,10.5c-0.1,0.9-0.5,1.8-1.1,2.5&#10;&#9;&#9;c-0.6,0.7-1.6,1-2.5,0.8c-5.4-1.1-14-18.1-15-20.7c-2.3-6.3-3.5-12.9-3.4-19.6c0-33.5,27.1-75.4,27.3-75.8c0.2-0.3,0.7-0.4,1-0.1&#10;&#9;&#9;c0.1,0,0.1,0.1,0.1,0.1c0.3,0.4,27.3,42.3,27.3,75.9c0,6.7-1.1,13.3-3.4,19.6c-2,5.3-4.8,10.2-8.4,14.6&#10;&#9;&#9;C149.4,280,144.8,284.9,141.7,284.9z M134.3,267.4c0.6,0,1.2,0.4,1.5,1c0.6,1.1,1.1,2.3,1.3,3.6l0.1,0.4c1,3.4,2.1,6.7,3.4,10&#10;&#9;&#9;c0.1,0.3,0.4,1,0.7,1.1c1.6,0.6,5.3-2.4,9.6-7.6c3.5-4.3,6.2-9,8.2-14.2c2.3-6.1,3.4-12.6,3.4-19.1c0-30.4-22.6-67.9-26.6-74.2&#10;&#9;&#9;c-3.9,6.3-26.5,43.8-26.5,74.2c0,6.5,1.1,13,3.4,19.1c1.1,2.9,9.5,19,13.9,19.8c0.5,0.1,0.9,0,1.2-0.4c0.4-0.5,0.6-1.2,0.7-1.8&#10;&#9;&#9;c0.9-3.8,2.4-7.5,4.2-10.9c0.2-0.5,0.6-0.9,1.1-1C134.1,267.4,134.2,267.4,134.3,267.4L134.3,267.4z"/>
	<path class="st1_fishing-91" d="M130.6,241.6c-0.4,0-0.7-0.3-0.7-0.7c0-0.1-0.2-0.7-0.4-1.6c-1.7-6.3-6.8-25.5-4-30.8c1.3-2.5,4.4-4,8.4-4h0.1&#10;&#9;&#9;c4.8,0,10.9,2.4,13.6,7.6c4.4,8.4-7.3,27.3-8,27.9c-0.3,0.3-0.7,0.2-1,0c0,0,0,0,0,0c-0.3-0.3-0.3-0.7,0-0.9&#10;&#9;&#9;c0.8-0.9,11.6-18.7,7.7-26.2c-2.4-4.7-8-6.8-12.4-6.8c-3.4-0.1-6.1,1.2-7.2,3.3c-1.7,3.2-0.3,13.2,4.1,29.8c0.2,0.7,0.4,1.3,0.5,2&#10;&#9;&#9;C131.2,241.3,131,241.6,130.6,241.6z"/>
	<path class="st0_fishing-91" d="M153.2,235.7c-0.2,0-0.4-0.1-0.5-0.3c0,0-2-2.5-4-2.7c-0.7,0-1.4,0.2-1.9,0.8c-0.3,0.3-0.7,0.3-0.9,0&#10;&#9;&#9;c0,0,0,0,0,0c-0.3-0.2-0.3-0.6,0-0.9c0,0,0,0,0,0c0.8-0.8,1.8-1.2,2.9-1.1c2.6,0.2,4.9,3.1,5,3.2c0.2,0.3,0.2,0.7-0.1,0.9&#10;&#9;&#9;C153.6,235.7,153.4,235.7,153.2,235.7L153.2,235.7z"/>
	<path class="st0_fishing-91" d="M115.9,229.3c-0.4,0-0.7-0.3-0.7-0.7c0-0.1,0-0.2,0.1-0.3c0.7-1.3,1.8-2.2,3.2-2.5c2.7-0.6,5.4,1.1,5.6,1.2&#10;&#9;&#9;c0.3,0.2,0.4,0.6,0.1,0.9c-0.2,0.3-0.6,0.4-0.9,0.2c0,0-2.4-1.5-4.5-1c-1,0.3-1.9,1-2.4,1.9C116.4,229.2,116.1,229.3,115.9,229.3z"/>
	<path class="st0_fishing-91" d="M131.1,191.2c-0.4,0-0.7-0.3-0.7-0.7c0-0.2,0.1-0.4,0.3-0.6c0.2-0.1,4.1-2.7,7.2-0.6c0.3,0.2,0.4,0.6,0.2,0.9&#10;&#9;&#9;c-0.2,0.3-0.6,0.4-0.9,0.2l0,0c-2.4-1.6-5.7,0.6-5.8,0.6C131.3,191.2,131.2,191.3,131.1,191.2z"/>
	<path class="st0_fishing-91" d="M146.5,194.7c-0.2,0-0.3-0.1-0.4-0.2c-1.2-1.1-3-1.3-4.5-0.5c-0.3,0.2-0.7,0.1-0.9-0.3&#10;&#9;&#9;c-0.2-0.3-0.1-0.7,0.3-0.9c0,0,0,0,0,0c2-1,4.3-0.7,6,0.7c0.3,0.3,0.3,0.7,0,0.9c0,0,0,0,0,0C146.8,194.7,146.7,194.7,146.5,194.7z&#10;&#9;&#9;"/>
	<path class="st2_fishing-91" d="M139.8,164.9c0.5-1.1,1.1-2.1,1.7-3.1c2.3-3.4,5-6.4,8.1-9.2c1.7-1.5,3.8-3,5.9-2.5c0.6-2.8-1.8-5.3-4-6.9&#10;&#9;&#9;c-5.7-3.9-14.9-5.9-18.5,2.5c-2-1.9-3.3-3.9-6-4.8c-2.3-0.7-4.7-0.7-7,0c-4.2,1.6-7.3,5.2-8.1,9.6c2.9-1.2,6.2-0.1,8.6,2&#10;&#9;&#9;c3.5,3,5.4,7.8,8.1,11.6c1.4,2.1,4,6.1,6.6,6C136.9,170.1,138.5,167.3,139.8,164.9z"/>
	<path class="st1_fishing-91" d="M135.1,170.8c-2.8,0-5.2-3.5-6.8-5.9l-0.3-0.4c-0.9-1.3-1.7-2.7-2.5-4.1c-1.6-2.7-3.2-5.4-5.4-7.4&#10;&#9;&#9;c-2-1.7-5.1-3.1-7.9-1.9c-0.4,0.1-0.8,0-0.9-0.4c-0.1-0.1-0.1-0.3,0-0.4c0.9-4.7,4.1-8.5,8.6-10.1c2.4-0.8,5-0.8,7.5,0&#10;&#9;&#9;c1.9,0.7,3.5,1.9,4.8,3.5l0.8,0.8c1.1-2.4,3.3-4.2,5.8-5c4.5-1.3,9.8,0.7,13.2,3.1c3.3,2.2,4.8,5,4.3,7.6c0,0.2-0.2,0.3-0.3,0.4&#10;&#9;&#9;c-0.2,0.1-0.3,0.1-0.5,0.1c-1.9-0.5-3.8,1-5.3,2.3c-3,2.7-5.7,5.8-8,9.1c-0.5,0.8-0.9,1.6-1.3,2.4l-0.3,0.6l0,0&#10;&#9;&#9;C138.8,168,137.2,170.7,135.1,170.8L135.1,170.8z M114.4,149.4c2.4,0.1,4.7,1,6.5,2.7c2.4,2.1,4.1,5,5.7,7.7c0.8,1.4,1.6,2.7,2.5,4&#10;&#9;&#9;l0.3,0.4c1.3,1.9,3.7,5.3,5.7,5.3h0.1c1.5,0,3.2-3.3,4-4.9l0.3-0.6c0.4-0.9,0.9-1.7,1.4-2.6c2.4-3.4,5.1-6.5,8.2-9.3&#10;&#9;&#9;c1.6-1.4,3.6-2.9,5.8-2.8c0.1-2.6-2.6-4.7-3.8-5.5c-3.2-2.2-8.1-4.1-12.1-2.9c-2.5,0.8-4.5,2.7-5.4,5.1c-0.1,0.2-0.3,0.4-0.5,0.4&#10;&#9;&#9;c-0.2,0-0.4,0-0.6-0.2c-0.6-0.5-1-1-1.5-1.5c-1.1-1.4-2.6-2.5-4.2-3.1c-2.1-0.7-4.5-0.7-6.6,0c-3.6,1.4-6.3,4.3-7.4,8&#10;&#9;&#9;C113.3,149.5,113.9,149.4,114.4,149.4z M139.8,164.9L139.8,164.9z"/>
	<path class="st2_fishing-91" d="M138.6,163.7c0.4,0.3,0.6,0.8,0.6,1.3c-0.1,1.1-1.4,1.8-2.5,2.1l-5,1.7c1.2-0.2,2.5-0.3,3.8-0.3&#10;&#9;&#9;c0.6,0,1.1,0.1,1.6,0.3c0.5,0.3,0.8,0.8,0.8,1.4c-0.1,0.6-0.6,0.9-1.1,1.2c-1.3,0.7-2.7,1.2-4.1,1.5c1.1,0,2.1,0.3,3,0.9&#10;&#9;&#9;c0.9,0.6,1.3,1.8,0.9,2.8c-0.7,0.8-1.6,1.2-2.6,1.1c-1.9,0.2-3.9-0.1-5.3,1.4c-1.4,2.3-2.7,4.7-3.9,7.2c-1.9-1.1-2.9-3.2-3.3-5.4&#10;&#9;&#9;c-1.7-7.8,1.7-17.3,8.9-21.3c1.9-1.1,4.3-1.7,6.2-0.5c0.3,0.2,0.6,0.4,0.7,0.7c0.3,0.8-0.4,1.6-1.1,2.1c-0.8,0.6-1.6,1.2-2.5,1.7&#10;&#9;&#9;c1.1-0.2,2.2-0.4,3.3-0.4C137.5,163.1,138.1,163.3,138.6,163.7z"/>
	<path class="st1_fishing-91" d="M124.6,186.8c-0.1,0-0.2,0-0.3-0.1l0,0c-2.3-1.3-3.2-3.9-3.7-5.8c-1.9-8.6,2.1-18,9.2-22&#10;&#9;&#9;c1.2-0.7,4.3-2.1,6.9-0.5c0.4,0.2,0.8,0.6,1,1.1c0.4,0.9-0.1,2-1.3,2.9h0.5c0.8,0,1.5,0.4,2.1,0.9l0,0c0.5,0.5,0.8,1.1,0.8,1.9&#10;&#9;&#9;c-0.1,1.8-2.2,2.5-2.9,2.7l-0.4,0.1c0.3,0.1,0.6,0.2,0.9,0.3c0.8,0.4,1.2,1.2,1.1,2.1c-0.2,0.7-0.8,1.3-1.5,1.6&#10;&#9;&#9;c-0.6,0.3-1.1,0.5-1.7,0.8c0.2,0.1,0.5,0.2,0.7,0.4c1.2,0.8,1.7,2.4,1,3.7c-0.7,1.2-2.3,1.4-3.1,1.4c-0.4,0.1-0.8,0.1-1.2,0.1&#10;&#9;&#9;c-1.4,0.1-2.7,0.1-3.6,1.1c-0.4,0.5-3.4,6.1-3.7,6.8c0,0.1,0,0.1-0.1,0.2C125.1,186.7,124.9,186.8,124.6,186.8z M134.1,159&#10;&#9;&#9;c-1.2,0-2.5,0.4-3.6,1c-6.6,3.7-10.3,12.5-8.5,20.5c0.3,1.7,1.1,3.3,2.4,4.5c1-2.2,3.6-6.6,3.7-6.6c1.3-1.4,2.9-1.4,4.5-1.5&#10;&#9;&#9;c0.4,0,0.8,0,1.2-0.1c0.9-0.1,1.8-0.2,2.1-0.8c0.3-0.7,0-1.5-0.6-1.9c-0.8-0.5-1.8-0.7-2.7-0.7c-0.4,0-0.6-0.4-0.6-0.8&#10;&#9;&#9;c0-0.3,0.2-0.5,0.5-0.6c1.4-0.3,2.7-0.7,4-1.4c0.2-0.1,0.7-0.4,0.8-0.7c0-0.3-0.2-0.5-0.4-0.6c-0.4-0.2-0.9-0.3-1.3-0.2&#10;&#9;&#9;c-1.2,0-2.4,0.1-3.6,0.3c-0.4,0.1-0.7-0.2-0.8-0.5c-0.1-0.3,0.1-0.7,0.4-0.8l5-1.7c1.3-0.4,2-0.9,2-1.5c0-0.3-0.1-0.6-0.4-0.8&#10;&#9;&#9;c-0.4-0.3-0.8-0.5-1.3-0.5c-0.6,0-1.2,0.1-1.8,0.2c-0.5,0.1-1,0.2-1.4,0.2c-0.3,0-0.6-0.2-0.7-0.5c-0.1-0.3,0-0.6,0.3-0.8&#10;&#9;&#9;c0.8-0.5,1.7-1,2.4-1.6c0.5-0.4,1-0.9,0.8-1.3c-0.1-0.2-0.3-0.3-0.4-0.4C135.4,159.1,134.7,159,134.1,159z"/>
	<path class="st0_fishing-91" d="M155.5,218.2c-0.2,0-0.4-0.1-0.5-0.2c-1-1-2.6-1.1-3.6-0.2c-0.3,0.2-0.7,0.2-0.9-0.1c0,0,0,0,0,0&#10;&#9;&#9;c-0.2-0.3-0.2-0.7,0.1-0.9c0,0,0,0,0,0c1.6-1.3,4-1.2,5.5,0.3c0.2,0.3,0.2,0.7-0.1,0.9C155.8,218.2,155.6,218.2,155.5,218.2&#10;&#9;&#9;L155.5,218.2z"/>
	<path class="st0_fishing-91" d="M150.6,265.4c-0.2,0-0.4-0.1-0.5-0.2l-5.4-5.6c-0.2-0.3-0.2-0.7,0.1-0.9c0.3-0.2,0.6-0.2,0.9,0l5.4,5.6&#10;&#9;&#9;c0.3,0.3,0.3,0.7,0,0.9c0,0,0,0,0,0C150.9,265.4,150.8,265.4,150.6,265.4z"/>
	<path class="st0_fishing-91" d="M145.2,265.4c-0.4,0-0.7-0.3-0.7-0.7c0-0.2,0.1-0.3,0.2-0.5l5.4-5.6c0.3-0.3,0.7-0.3,0.9,0c0,0,0,0,0,0&#10;&#9;&#9;c0.3,0.2,0.3,0.6,0,0.9c0,0,0,0,0,0l-5.4,5.6C145.5,265.4,145.3,265.4,145.2,265.4z"/>
	<path class="st0_fishing-91" d="M118.4,212.9c-0.4,0-0.7-0.3-0.7-0.7c0-0.1,0-0.2,0.1-0.3c0.7-1.1,1.8-1.9,3.2-2.1c1.3-0.1,2.6,0.3,3.6,1.3&#10;&#9;&#9;c0.3,0.2,0.3,0.6,0,0.9c0,0,0,0,0,0c-0.3,0.3-0.7,0.3-0.9,0c-1.1-1.2-3-1.2-4.1-0.1c-0.2,0.2-0.4,0.4-0.5,0.6&#10;&#9;&#9;C118.8,212.8,118.6,213,118.4,212.9z"/>
	<path class="st0_fishing-91" d="M137.2,239.1L137.2,239.1c-0.5-0.1-0.7-0.4-0.7-0.7c0,0,0,0,0,0c0.1-0.8,3.9-25.5,3.9-25.5l1.3,0.2&#10;&#9;&#9;c0,0-3.7,24.6-3.9,25.4C137.8,238.9,137.5,239.1,137.2,239.1z"/>
	<path class="st0_fishing-91" d="M135.6,238.8c-0.3,0-0.6-0.3-0.7-0.6l-2.5-24.8c0-0.4,0.2-0.7,0.6-0.7s0.7,0.2,0.7,0.6l2.5,24.8&#10;&#9;&#9;C136.2,238.4,136,238.7,135.6,238.8L135.6,238.8z"/>
	<path class="st1_fishing-91" d="M113.3,258.9c-0.2,0-0.4-0.1-0.5-0.2c-0.3-0.3-0.3-0.7,0-1c0,0,0,0,0,0c0.2-0.2,22.9-20.6,46.2-3.1&#10;&#9;&#9;c0.3,0.2,0.4,0.6,0.2,0.9c0,0,0,0,0,0.1c-0.2,0.3-0.6,0.4-0.9,0.2c0,0,0,0-0.1-0.1c-22.4-16.8-44.2,2.9-44.4,3&#10;&#9;&#9;C113.5,258.8,113.4,258.9,113.3,258.9z"/>
	<path class="st2_fishing-91" d="M140,171.1c0.4,0.4,0.8,0.6,1.3,0.6c3.2,0,4.5-7.9,0.5-8.6C137,162.1,137.4,168.8,140,171.1z"/>
	<path class="st1_fishing-91" d="M141.3,172.4L141.3,172.4c-0.7,0-1.3-0.3-1.8-0.8l0,0c-2-1.9-2.6-4.8-1.7-7.4c0.4-0.9,1.5-2.3,4.1-1.8&#10;&#9;&#9;c2.4,0.4,3.2,3,3,5.3S143.4,172.4,141.3,172.4z M140.5,170.5c0.2,0.2,0.5,0.4,0.9,0.4l0,0c1.2,0,2.1-1.8,2.3-3.4s-0.2-3.5-1.9-3.8&#10;&#9;&#9;c-1-0.4-2.1,0.1-2.6,1C138.4,166.7,138.9,169,140.5,170.5L140.5,170.5z"/>
	<path class="st1_fishing-91" d="M348.3,340.2L348.3,340.2c-0.4,0-0.7-0.3-0.7-0.7c0,0,0,0,0,0c0.7-22.8,0.9-100.8,0.9-101.6&#10;&#9;&#9;c0-0.1,0-0.3,0.1-0.4c0.1-0.2,12-18.2,14.2-37.7c3-26.4-4-39.1-4-39.2c-0.1-0.2-0.1-0.4,0-0.5c0.1-0.2,0.2-0.3,0.4-0.4&#10;&#9;&#9;c0.1-0.1,9.1-4.9,12.6-31.6c3.1-23.5-3.8-36.6-3.8-36.7c-0.2-0.3-0.1-0.7,0.2-1s0.7-0.1,1,0.2c0,0,0,0.1,0.1,0.1&#10;&#9;&#9;c0.3,0.6,7.1,13.6,4,37.5s-10.6,30.8-12.8,32.3c1.4,2.8,6.6,15.5,3.9,39.5c-2.1,18.8-13,36.2-14.3,38.1c0,4.5-0.2,79.2-0.8,101.4&#10;&#9;&#9;C349.1,339.9,348.8,340.2,348.3,340.2C348.4,340.2,348.4,340.2,348.3,340.2z"/>
	<circle class="st1_fishing-91" cx="346.9" cy="350.4" r="11"/>
	<path class="st1_fishing-91" d="M346.9,362c-0.5,0-1,0-1.5-0.1c-6.4-0.8-10.9-6.7-10-13c0.8-6.4,6.7-10.9,13-10c6.4,0.8,10.9,6.6,10.1,13&#10;&#9;&#9;C357.8,357.6,352.8,362,346.9,362z M346.9,340c-5.7,0-10.3,4.6-10.3,10.4c0,5.7,4.6,10.3,10.4,10.3c5.7,0,10.3-4.6,10.3-10.4&#10;&#9;&#9;c0-5.2-3.8-9.6-9-10.3C347.8,340.1,347.3,340,346.9,340L346.9,340z"/>
	<circle class="st2_fishing-91" cx="346.9" cy="350.4" r="7.8"/>
	<path class="st1_fishing-91" d="M346.9,358.8c-0.4,0-0.7,0-1.1-0.1c-4.6-0.6-7.9-4.9-7.3-9.5c0.6-4.6,4.9-7.9,9.5-7.3c4.6,0.6,7.9,4.9,7.3,9.5&#10;&#9;&#9;C354.7,355.7,351.2,358.8,346.9,358.8L346.9,358.8z M346.9,343.3c-3.9,0-7.1,3.2-7.1,7.1c0,3.9,3.2,7.1,7.1,7.1s7.1-3.2,7.1-7.1&#10;&#9;&#9;c0-3.5-2.6-6.5-6.2-7C347.5,343.3,347.2,343.3,346.9,343.3L346.9,343.3z"/>
	<path class="st1_fishing-91" d="M327.3,417l-2.1-0.3c-1.7-0.2-3-1.8-2.7-3.6l14.4-109.9c0.2-1.7,1.8-3,3.6-2.7l2.1,0.3c1.7,0.2,3,1.8,2.7,3.6&#10;&#9;&#9;l-14.4,109.9C330.6,416,329,417.2,327.3,417z"/>
	<path class="st1_fishing-91" d="M327.2,417.2c-0.2,0-0.3,0-0.5,0l-2.1-0.3l0,0c-2.1-0.3-3.6-2.2-3.3-4.3c0,0,0,0,0,0l14.4-110.1&#10;&#9;&#9;c0.3-2.1,2.2-3.6,4.3-3.3c0,0,0,0,0,0l2.1,0.3c2.1,0.3,3.6,2.2,3.3,4.3c0,0,0,0,0,0l-14.5,110C330.7,415.8,329.2,417.2,327.2,417.2&#10;&#9;&#9;z M324.8,415.6l2.1,0.3c1.4,0.2,2.6-0.8,2.8-2.2l14.4-110.1c0.1-0.7-0.1-1.3-0.5-1.9c-0.4-0.5-1-0.9-1.7-1l-2.1-0.3&#10;&#9;&#9;c-1.4-0.2-2.6,0.8-2.8,2.2l-14.4,110.1C322.5,414.1,323.4,415.4,324.8,415.6L324.8,415.6z"/>
	<path class="st1_fishing-91" d="M340.6,304.5h-0.2c-0.7-0.1-1.2-0.7-1.1-1.5c0,0,0,0,0,0l28.4-216.7c0.2-0.7,0.9-1.2,1.6-1&#10;&#9;&#9;c0.6,0.1,1.1,0.7,1.1,1.4l-28.4,216.7C341.8,304.1,341.3,304.6,340.6,304.5z"/>
	<path class="st2_fishing-91" d="M361.7,235.8c0.4-1.3,0.3-2.7-0.3-3.9c-1.4-2.2-4.3-1.3-6.4-1c-2.9,0.3-5.7,0.9-8.4,1.8&#10;&#9;&#9;c-0.9,0.2-1.7,0.6-2.5,1.2c-1,0.8-2.2,3.1-1.2,4.3c0.7,0.6,1.6,0.9,2.5,0.8c1.7,0.1,3.4,0,5-0.5c-1.7,0.1-3.3,0.4-4.8,1&#10;&#9;&#9;c-0.9,0.3-1.8,0.8-2.5,1.4c-0.7,0.6-1.1,1.6-1.1,2.6c0.3,3.9,5.3,2.8,7.6,2.2c-2.3,0.2-4.6,1-6.5,2.3c-0.5,0.3-0.9,0.7-1.3,1.3&#10;&#9;&#9;c-0.3,0.5-0.3,1.2,0,1.7c0.4,0.4,1,0.6,1.6,0.7c1.7,0.2,3.4,0.1,5-0.2c-2.2,0.5-4.5,1-5.4,3.2c-1.5,3.4,1.5,3.8,4.3,3.7&#10;&#9;&#9;c2.1,0,4.3-0.3,6.4-0.9c1.8-0.6,3.9-1.9,4.5-3.8s0.8-3.8,1.3-5.6C360.5,243.9,361,239.8,361.7,235.8z"/>
	<path class="st1_fishing-91" d="M346.6,258.9c-1.6,0-3.4-0.2-4.2-1.4c-0.6-1-0.5-2.2,0-3.2c0.3-0.8,0.9-1.5,1.5-2l-0.6-0.1&#10;&#9;&#9;c-0.8,0-1.5-0.4-2-0.9c-0.5-0.7-0.6-1.7-0.1-2.4c0.4-0.6,0.9-1.1,1.5-1.5c0.4-0.2,0.7-0.5,1.1-0.7c-0.4-0.1-0.9-0.3-1.2-0.6&#10;&#9;&#9;c-0.8-0.6-1.3-1.6-1.3-2.6c0-1.2,0.4-2.3,1.3-3.1c0.4-0.3,0.8-0.6,1.2-0.9c-0.6-0.1-1.1-0.4-1.5-0.9c-0.4-0.5-0.6-1.2-0.5-1.8&#10;&#9;&#9;c0.2-1.3,0.8-2.5,1.8-3.4c0.8-0.6,1.7-1.1,2.7-1.3c2.8-0.9,5.7-1.5,8.6-1.8c0.3,0,0.6-0.1,1-0.1c2-0.3,4.7-0.7,6.1,1.5&#10;&#9;&#9;c0.7,1.3,0.8,2.9,0.4,4.3c-0.2,1.3-0.4,2.6-0.6,3.8c-0.4,2.7-0.9,5.5-1.6,8.3c-0.2,0.8-0.4,1.6-0.5,2.4c-0.2,1.1-0.5,2.2-0.8,3.2&#10;&#9;&#9;c-0.7,2.7-3.9,3.9-4.9,4.3c-2.1,0.6-4.3,0.9-6.5,0.9L346.6,258.9z M348.5,252c-2.3,0.5-4,1-4.8,2.8c-0.4,0.9-0.4,1.5-0.2,1.9&#10;&#9;&#9;c0.4,0.6,1.7,0.9,3.8,0.8c2.1,0,4.2-0.3,6.1-0.9c0.8-0.3,3.5-1.4,4-3.4c0.3-1,0.5-2.1,0.7-3.2c0.2-0.8,0.4-1.6,0.5-2.4&#10;&#9;&#9;c0.7-2.7,1.1-5.5,1.5-8.2c0.2-1.3,0.4-2.6,0.6-3.9l0,0c0.3-1.1,0.3-2.3-0.2-3.4c-0.9-1.4-2.5-1.2-4.7-0.9l-1,0.1&#10;&#9;&#9;c-2.8,0.3-5.6,0.9-8.3,1.8c-0.8,0.2-1.6,0.5-2.2,1c-0.7,0.7-1.2,1.6-1.3,2.5c0,0.3,0,0.6,0.2,0.8c0.6,0.4,1.3,0.6,2,0.6&#10;&#9;&#9;c0.5,0,1,0,1.5,0c1.1-0.3,2.3-0.5,3.5-0.5c0.3,0,0.6,0.2,0.7,0.5c0.1,0.3-0.1,0.7-0.4,0.8c-1.2,0.4-2.4,0.6-3.6,0.6&#10;&#9;&#9;c-0.4,0.1-0.8,0.2-1.2,0.4c-0.8,0.3-1.6,0.7-2.2,1.3c-0.6,0.5-0.9,1.2-0.9,2c0,0.6,0.3,1.2,0.8,1.6c1,0.5,2.1,0.7,3.2,0.5&#10;&#9;&#9;c0.9-0.3,1.9-0.5,2.9-0.5c0.4,0,0.7,0.2,0.7,0.6c0.1,0.3-0.2,0.7-0.5,0.8c-0.9,0.2-1.9,0.4-2.8,0.5c-1.2,0.4-2.4,0.9-3.5,1.7&#10;&#9;&#9;c-0.4,0.2-0.8,0.6-1,1c-0.2,0.3-0.2,0.7,0,0.9c0.3,0.3,0.7,0.4,1.1,0.4c1.5,0.2,3.1,0.1,4.6-0.2h0.2c0.4-0.1,0.7,0.2,0.8,0.5&#10;&#9;&#9;c0.1,0.4-0.2,0.7-0.5,0.8L348.5,252z"/>
	<path class="st2_fishing-91" d="M342.4,239.3c0.4-1.7-1.6-3.3-3.3-3c-1.7,0.4-3.1,1.7-3.7,3.4c-1.1,2.9-0.5,6.1,0.4,9.1c0.2,0.8,0.6,1.5,1.2,2&#10;&#9;&#9;c1,0.6,2.2,0.5,3.1-0.3c0.8-0.8,1.4-1.7,1.7-2.8c1.1-3.6,1.1-7.4,0-10.9"/>
	<path class="st1_fishing-91" d="M338.2,251.9c-0.6,0-1.2-0.2-1.6-0.5c-0.7-0.6-1.2-1.5-1.4-2.4c-0.8-2.5-1.6-6.2-0.4-9.6&#10;&#9;&#9;c0.6-1.9,2.2-3.4,4.2-3.8c0.9-0.1,1.7,0.1,2.5,0.6h0.1c0.4-0.1,0.7,0.1,0.9,0.4c0.1,0.2,0.1,0.4,0.2,0.7c0.4,0.6,0.6,1.4,0.5,2.2&#10;&#9;&#9;c0.4,2.8,0.2,5.8-0.7,8.5c-0.3,1.2-1,2.3-1.9,3.1C339.8,251.6,339,251.9,338.2,251.9z M339.5,236.9h-0.3c-1.5,0.4-2.7,1.5-3.1,3&#10;&#9;&#9;c-1.1,2.9-0.3,6.4,0.4,8.7c0.1,0.6,0.4,1.2,0.9,1.7c0.7,0.4,1.6,0.3,2.2-0.3c0.7-0.7,1.2-1.6,1.5-2.5c1-3.1,1.1-6.5,0.3-9.7&#10;&#9;&#9;l-0.1-0.1C340.8,237.2,340.1,236.9,339.5,236.9L339.5,236.9z"/>
	<path class="st1_fishing-91" d="M349.3,376.6c-0.1,0-0.3,0-0.4-0.1c-0.2-0.1-0.3-0.3-0.3-0.5l-2.4-25.5c0-0.4,0.2-0.7,0.6-0.7&#10;&#9;&#9;c0.4,0,0.7,0.2,0.7,0.6l2.4,24.7l3.7-1.1c0.3-0.1,0.7,0.1,0.8,0.4s-0.1,0.7-0.4,0.8c0,0,0,0,0,0l-4.5,1.4&#10;&#9;&#9;C349.5,376.6,349.4,376.6,349.3,376.6z"/>
	
		<ellipse transform="matrix(0.9978 -6.592560e-02 6.592560e-02 0.9978 -7.1259 16.4115)" class="st1_fishing-91" cx="245.1" cy="116.2" rx="1" ry="2.2"/>
	
		<ellipse transform="matrix(0.9978 -6.592560e-02 6.592560e-02 0.9978 -7.225 15.4703)" class="st1_fishing-91" cx="230.8" cy="117.2" rx="1" ry="2.2"/>
</g>
</svg>